<?xml version="1.0" encoding="UTF-8"?>
<!DOCTYPE svg PUBLIC "-//W3C//DTD SVG 1.1//EN" "http://www.w3.org/Graphics/SVG/1.1/DTD/svg11.dtd">
<svg xmlns="http://www.w3.org/2000/svg" version="1.1" width="64px" height="64px" style="shape-rendering:geometricPrecision; text-rendering:geometricPrecision; image-rendering:optimizeQuality; fill-rule:evenodd; clip-rule:evenodd" xmlns:xlink="http://www.w3.org/1999/xlink">
<g><path style="opacity:0.735" fill="#000000" d="M 14.5,-0.5 C 15.8333,-0.5 17.1667,-0.5 18.5,-0.5C 18.5,1.16667 18.5,2.83333 18.5,4.5C 27.1667,4.5 35.8333,4.5 44.5,4.5C 44.5,2.83333 44.5,1.16667 44.5,-0.5C 45.8333,-0.5 47.1667,-0.5 48.5,-0.5C 48.5,1.16667 48.5,2.83333 48.5,4.5C 52.1817,4.3347 55.8484,4.50137 59.5,5C 61.3502,5.68972 62.6836,6.85639 63.5,8.5C 63.5,25.5 63.5,42.5 63.5,59.5C 62.5,61.1667 61.1667,62.5 59.5,63.5C 40.8333,63.5 22.1667,63.5 3.5,63.5C 1.83333,62.5 0.5,61.1667 -0.5,59.5C -0.5,45.8333 -0.5,32.1667 -0.5,18.5C 0.316435,16.8564 1.64977,15.6897 3.5,15C 20.1633,14.5001 36.83,14.3334 53.5,14.5C 53.5,15.8333 53.5,17.1667 53.5,18.5C 37.4965,18.3334 21.4965,18.5001 5.5,19C 5,19.5 4.5,20 4,20.5C 3.33333,32.8333 3.33333,45.1667 4,57.5C 4.5,58 5,58.5 5.5,59C 22.8333,59.6667 40.1667,59.6667 57.5,59C 58,58.5 58.5,58 59,57.5C 59.6667,41.8333 59.6667,26.1667 59,10.5C 58.5,10 58,9.5 57.5,9C 38.1695,8.50005 18.8362,8.33338 -0.5,8.5C -0.5,7.16667 -0.5,5.83333 -0.5,4.5C 4.5,4.5 9.5,4.5 14.5,4.5C 14.5,2.83333 14.5,1.16667 14.5,-0.5 Z M 12.5,28.5 C 13.5,28.5 14.5,28.5 15.5,28.5C 15.5,29.8333 15.5,31.1667 15.5,32.5C 14.5,32.5 13.5,32.5 12.5,32.5C 12.5,31.1667 12.5,29.8333 12.5,28.5 Z M 30.5,28.5 C 33.8606,29.2032 34.1939,30.5365 31.5,32.5C 29.3576,31.5629 29.0243,30.2296 30.5,28.5 Z M 29.5,46.5 C 30.8333,46.5 32.1667,46.5 33.5,46.5C 33.5,47.5 33.5,48.5 33.5,49.5C 32.1667,49.5 30.8333,49.5 29.5,49.5C 29.5,48.5 29.5,47.5 29.5,46.5 Z M 47.5,46.5 C 48.5,46.5 49.5,46.5 50.5,46.5C 50.5,47.5 50.5,48.5 50.5,49.5C 49.5,49.5 48.5,49.5 47.5,49.5C 47.5,48.5 47.5,47.5 47.5,46.5 Z"/></g>
<g><path style="opacity:0.725" fill="#000000" d="M 11.5,24.5 C 19.2627,24.2276 21.596,27.7276 18.5,35C 10.1304,38.0596 6.96378,35.2263 9,26.5C 9.9947,25.9341 10.828,25.2674 11.5,24.5 Z M 12.5,28.5 C 12.5,29.8333 12.5,31.1667 12.5,32.5C 13.5,32.5 14.5,32.5 15.5,32.5C 15.5,31.1667 15.5,29.8333 15.5,28.5C 14.5,28.5 13.5,28.5 12.5,28.5 Z"/></g>
<g><path style="opacity:0.698" fill="#000000" d="M 28.5,24.5 C 37.8176,24.6546 39.8176,28.488 34.5,36C 25.0959,36.141 23.0959,32.3076 28.5,24.5 Z M 30.5,28.5 C 29.0243,30.2296 29.3576,31.5629 31.5,32.5C 34.1939,30.5365 33.8606,29.2032 30.5,28.5 Z"/></g>
<g><path style="opacity:0.814" fill="#000000" d="M 46.5,24.5 C 54.2627,24.2276 56.596,27.7276 53.5,35C 45.1304,38.0596 41.9638,35.2263 44,26.5C 44.9947,25.9341 45.828,25.2674 46.5,24.5 Z"/></g>
<g><path style="opacity:0.866" fill="#000000" d="M 10.5,42.5 C 19.4867,41.665 21.8201,45.165 17.5,53C 8.42966,54.1356 6.09632,50.6356 10.5,42.5 Z"/></g>
<g><path style="opacity:0.725" fill="#000000" d="M 27.5,42.5 C 36.6032,41.2216 39.2698,44.7216 35.5,53C 26.2207,54.6176 23.554,51.1176 27.5,42.5 Z M 29.5,46.5 C 29.5,47.5 29.5,48.5 29.5,49.5C 30.8333,49.5 32.1667,49.5 33.5,49.5C 33.5,48.5 33.5,47.5 33.5,46.5C 32.1667,46.5 30.8333,46.5 29.5,46.5 Z"/></g>
<g><path style="opacity:0.754" fill="#000000" d="M 45.5,42.5 C 54.4867,41.665 56.8201,45.165 52.5,53C 43.4297,54.1356 41.0963,50.6356 45.5,42.5 Z M 47.5,46.5 C 47.5,47.5 47.5,48.5 47.5,49.5C 48.5,49.5 49.5,49.5 50.5,49.5C 50.5,48.5 50.5,47.5 50.5,46.5C 49.5,46.5 48.5,46.5 47.5,46.5 Z"/></g>
</svg>
