<?xml version="1.0" standalone="no"?>
<!DOCTYPE svg PUBLIC "-//W3C//DTD SVG 20010904//EN"
 "http://www.w3.org/TR/2001/REC-SVG-20010904/DTD/svg10.dtd">
<svg version="1.0" xmlns="http://www.w3.org/2000/svg"
 width="1180.000000pt" height="1180.000000pt" viewBox="0 0 1180.000000 1180.000000"
 preserveAspectRatio="xMidYMid meet">

<g transform="translate(0.000000,1180.000000) scale(0.100000,-0.100000)"
fill="#000000" stroke="none">
<path d="M1563 11753 c18 -27 339 -487 712 -1023 373 -536 685 -983 693 -992
14 -17 85 -18 1224 -18 l1208 0 0 -2924 c0 -2900 0 -2924 20 -2989 49 -159
188 -294 359 -347 92 -29 252 -28 342 3 147 50 264 152 328 287 l36 75 3 2947
2 2948 1217 2 1218 3 718 1033 c396 568 717 1035 714 1038 -9 9 -3385 -16
-3489 -26 -194 -20 -281 -41 -393 -97 -243 -122 -407 -331 -470 -595 -8 -35
-15 -78 -15 -96 0 -33 -1 -33 -42 -30 l-42 3 -12 72 c-32 191 -110 341 -248
479 -141 140 -294 218 -491 250 -117 19 -831 30 -2423 38 l-1204 6 35 -47z"/>
<path d="M1343 8910 l3 -2875 22 -155 c73 -516 181 -895 360 -1272 301 -632
856 -1529 1393 -2248 80 -107 165 -224 189 -260 144 -216 419 -511 635 -684
459 -367 1000 -601 1575 -680 58 -8 132 -18 164 -21 l59 -7 -343 -343 -343
-343 39 -11 c27 -8 410 -11 1249 -11 l1210 1 2123 2123 2122 2123 0 1259 0
1259 -665 -665 c-366 -366 -665 -660 -665 -655 0 6 9 57 20 115 27 137 56 336
70 480 8 82 10 912 8 2924 l-3 2809 -748 -1069 -749 -1069 6 -940 c3 -517 9
-1772 12 -2790 l6 -1850 -1588 -1587 -1589 -1588 -140 10 c-77 6 -192 17 -255
26 -1023 138 -1937 800 -2391 1732 -141 289 -226 565 -280 907 -21 131 -23
181 -27 775 -4 654 14 4628 23 5055 l6 240 -721 1030 c-396 567 -736 1052
-756 1080 l-34 50 3 -2875z m9862 -3504 c-6 -31 0 -39 136 -174 130 -130 145
-142 175 -140 18 1 37 -1 41 -5 10 -11 -177 -196 -193 -190 -8 3 -11 16 -7 37
4 29 -1 39 -48 89 -53 57 -74 68 -81 45 -4 -11 37 -113 80 -196 l17 -32 -77
-76 c-75 -76 -107 -89 -88 -38 16 40 12 60 -27 150 -29 66 -40 83 -52 78 -9
-3 -37 -9 -63 -11 -41 -5 -53 -2 -82 21 -54 41 -69 113 -36 177 18 35 292 309
302 303 5 -3 6 -20 3 -38z m-420 -396 c4 -6 1 -17 -5 -25 -21 -25 0 -55 124
-179 167 -165 160 -160 186 -146 12 6 29 9 38 5 12 -4 -6 -28 -78 -100 -101
-102 -126 -116 -115 -64 6 28 0 37 -88 126 l-95 97 33 -129 c19 -70 40 -132
47 -136 7 -5 27 -9 44 -9 17 0 34 -3 38 -7 8 -9 -174 -193 -191 -193 -15 0
-17 15 -3 40 13 25 -22 71 -163 208 -112 109 -118 113 -151 107 -18 -4 -36 -3
-39 2 -8 13 179 197 192 189 6 -4 8 -20 4 -36 -5 -27 3 -39 83 -121 49 -49 90
-86 91 -82 5 15 -55 234 -68 250 -9 10 -24 13 -46 10 -18 -3 -36 -1 -39 5 -6
9 172 198 188 198 4 0 10 -5 13 -10z m-407 -483 c60 -61 56 -85 -10 -51 -38
20 -66 13 -103 -26 l-30 -31 145 -145 c143 -143 145 -145 183 -139 26 4 37 2
37 -8 0 -7 -43 -55 -95 -107 -74 -74 -97 -92 -107 -82 -9 9 -9 15 0 24 7 7 12
20 12 30 0 10 -65 84 -146 164 l-146 146 -34 -33 c-38 -37 -43 -66 -17 -110
14 -23 15 -31 5 -41 -10 -10 -23 -1 -65 40 l-52 52 180 180 c99 99 185 180
190 180 6 0 30 -19 53 -43z m-444 -366 c4 -5 2 -20 -3 -34 -9 -22 2 -36 139
-171 131 -131 150 -146 173 -141 58 15 48 -8 -44 -101 -52 -52 -100 -94 -107
-94 -9 0 -11 9 -6 35 6 32 2 39 -51 94 -34 36 -62 58 -71 54 -20 -8 -18 -17
35 -133 l49 -105 -71 -72 c-73 -75 -106 -93 -92 -50 16 44 7 93 -29 168 l-37
76 -35 -12 c-119 -41 -215 74 -158 188 16 31 281 307 295 307 5 0 10 -4 13 -9z
m-430 -459 c-5 -37 -4 -39 139 -179 79 -79 150 -143 158 -143 8 0 20 5 27 12
9 9 15 9 24 0 10 -10 -8 -33 -82 -107 -52 -52 -98 -95 -102 -95 -5 0 -8 17 -8
38 0 34 -8 46 -90 127 -49 49 -90 87 -90 85 1 -15 68 -252 74 -257 3 -3 21 -7
40 -7 19 -1 38 -5 42 -9 10 -9 -165 -187 -184 -187 -9 0 -11 9 -6 36 6 35 5
37 -134 176 -137 137 -141 141 -176 135 -20 -3 -38 -1 -42 5 -4 5 35 52 87
104 71 71 96 91 106 83 8 -8 10 -17 3 -28 -12 -23 6 -48 104 -147 43 -43 76
-70 73 -59 -3 11 -18 67 -32 125 -31 123 -45 144 -92 135 -23 -4 -33 -2 -33 7
0 17 181 198 192 192 4 -3 5 -22 2 -42z m-389 -527 c59 -28 144 -112 175 -174
31 -61 37 -138 15 -182 -34 -67 -88 -109 -142 -109 -26 0 -23 -5 52 -80 44
-44 86 -80 94 -80 8 0 23 8 33 17 15 13 21 14 31 4 9 -9 -11 -35 -96 -118
-109 -108 -140 -123 -115 -55 l13 33 -232 231 c-136 135 -237 229 -245 226
-81 -31 -77 -11 17 82 66 65 78 73 94 63 17 -11 19 -8 24 29 12 91 100 153
197 140 19 -2 58 -15 85 -27z m-502 -338 c3 -8 1 -20 -4 -28 -5 -8 -9 -20 -9
-27 0 -7 63 -77 140 -154 l141 -140 39 6 c29 5 40 3 40 -7 0 -16 -172 -187
-188 -187 -10 0 -12 9 -7 31 7 29 -1 38 -142 180 l-148 150 -48 -49 -47 -48
149 -148 c134 -133 153 -148 176 -142 55 14 45 -9 -46 -100 -109 -110 -137
-121 -104 -42 5 13 -25 50 -124 151 -142 145 -172 168 -200 150 -11 -7 -23 -8
-32 -2 -11 6 35 58 191 214 113 113 208 205 211 205 4 0 9 -6 12 -13z m-378
-561 c28 -13 69 -43 92 -67 135 -142 120 -314 -36 -412 -51 -31 -157 -31 -221
0 -143 71 -218 242 -161 368 20 44 78 100 125 121 51 22 144 17 201 -10z
m-411 -391 c21 -10 62 -42 91 -70 109 -106 140 -230 80 -316 -33 -48 -78 -78
-118 -81 -15 -1 -27 -5 -27 -8 0 -14 148 -150 163 -150 10 0 28 7 41 16 18 11
26 12 31 3 9 -13 -194 -221 -210 -215 -10 3 -11 17 0 52 5 16 -30 56 -194 220
-267 268 -265 266 -296 252 -16 -7 -29 -8 -35 -2 -6 6 19 38 70 89 78 78 80
79 100 60 20 -18 20 -18 20 22 0 48 30 97 80 131 30 21 44 23 100 19 36 -2 83
-12 104 -22z m-428 -424 c22 -11 53 -32 69 -46 l30 -25 -97 -97 c-108 -106
-108 -107 -34 -145 45 -23 134 -22 158 3 24 25 35 63 31 107 -3 36 -1 42 16
42 19 0 29 -31 36 -105 7 -68 -37 -149 -105 -191 -63 -41 -154 -41 -221 -2
-115 67 -178 165 -179 274 0 100 49 176 135 206 34 12 120 1 161 -21z m-566
-82 c0 -6 -9 -22 -20 -36 -11 -14 -20 -35 -20 -47 0 -26 427 -456 453 -456 22
0 67 21 67 32 0 4 7 8 15 8 8 0 15 -6 15 -13 0 -20 -277 -291 -284 -278 -4 6
2 24 13 40 41 57 55 39 -329 416 l-51 50 32 -80 c18 -44 38 -95 46 -112 8 -18
20 -50 28 -70 7 -21 43 -110 79 -198 36 -88 66 -166 66 -172 0 -7 -6 -13 -14
-13 -11 0 -220 79 -291 110 -11 4 -76 31 -145 58 -69 28 -143 58 -165 67 -34
14 -10 -13 154 -178 107 -108 202 -198 212 -200 10 -3 37 4 59 15 76 38 64 7
-34 -91 -92 -92 -136 -114 -96 -48 38 62 36 65 -192 294 -117 117 -222 214
-233 216 -11 2 -35 -8 -53 -21 -25 -18 -37 -21 -45 -13 -8 8 20 41 101 123
l112 111 192 -78 c106 -43 214 -86 241 -96 l47 -19 -13 32 c-8 18 -30 71 -50
118 -95 227 -127 307 -127 320 0 18 200 220 217 220 7 0 13 -5 13 -11z"/>
<path d="M11037 5222 c-38 -39 -35 -76 7 -118 47 -47 106 -45 155 3 12 13 5
23 -50 79 -35 35 -68 64 -74 64 -6 0 -23 -13 -38 -28z"/>
<path d="M9767 3952 c-46 -48 -31 -114 33 -147 41 -21 60 -19 104 11 l38 26
-68 69 c-38 38 -71 69 -74 69 -4 0 -18 -13 -33 -28z"/>
<path d="M8899 3059 c-17 -17 -20 -29 -16 -62 5 -35 19 -54 104 -139 92 -92
100 -98 139 -98 69 0 94 52 55 115 -53 86 -194 205 -243 205 -10 0 -28 -10
-39 -21z"/>
<path d="M7996 2194 c-32 -32 -20 -67 53 -150 67 -76 142 -146 185 -171 31
-18 53 -16 77 8 37 37 7 92 -120 220 -99 100 -159 129 -195 93z"/>
<path d="M7600 1761 c-5 -11 -10 -36 -10 -57 0 -33 10 -46 93 -131 50 -52 103
-99 115 -104 15 -6 39 -5 63 1 52 14 61 47 29 107 -26 49 -158 179 -196 193
-42 16 -82 12 -94 -9z"/>
<path d="M7198 1399 c-30 -17 -23 -70 18 -124 l36 -47 49 48 c27 27 49 49 49
50 0 1 -20 18 -43 37 -50 40 -84 52 -109 36z"/>
</g>
</svg>
