<?xml version="1.0" standalone="no"?>
<!DOCTYPE svg PUBLIC "-//W3C//DTD SVG 20010904//EN"
 "http://www.w3.org/TR/2001/REC-SVG-20010904/DTD/svg10.dtd">
<svg version="1.0" xmlns="http://www.w3.org/2000/svg"
 width="100.000000pt" height="100.000000pt" viewBox="0 0 100.000000 100.000000"
 preserveAspectRatio="xMidYMid meet">

<g transform="translate(0.000000,100.000000) scale(0.100000,-0.100000)"
fill="#000000" stroke="none">
<path d="M445 908 c-3 -8 -4 -106 -3 -218 l3 -205 55 0 55 0 0 215 0 215 -53
3 c-36 2 -54 -1 -57 -10z m75 -208 c0 -173 -1 -180 -20 -180 -19 0 -20 7 -20
180 0 173 1 180 20 180 19 0 20 -7 20 -180z"/>
<path d="M295 796 c-93 -30 -180 -77 -240 -129 -55 -49 -54 -55 14 -121 l40
-39 53 40 c62 48 136 86 196 102 31 9 42 17 42 31 0 24 6 24 -61 4 -67 -20
-143 -58 -190 -95 l-36 -28 -27 28 -27 28 37 32 c57 46 161 97 237 117 53 13
67 20 67 35 0 24 -18 24 -105 -5z"/>
<path d="M600 801 c0 -16 11 -22 55 -31 66 -14 195 -76 248 -121 l38 -32 -27
-28 -27 -28 -36 28 c-47 37 -123 75 -190 95 -67 20 -61 20 -61 -4 0 -14 11
-22 42 -31 60 -16 134 -54 196 -102 l53 -40 40 39 c68 66 69 72 13 121 -59 52
-156 104 -248 132 -84 26 -96 26 -96 2z"/>
<path d="M340 558 c-58 -22 -124 -63 -152 -94 -15 -18 -13 -22 36 -75 l53 -56
39 29 c21 17 49 34 62 39 13 5 22 17 22 29 0 26 -25 21 -84 -17 l-39 -25 -25
26 c-25 25 -25 26 -7 46 20 22 115 70 139 70 10 0 16 9 16 25 0 14 -1 25 -2
24 -2 0 -28 -9 -58 -21z"/>
<path d="M600 555 c0 -16 6 -25 16 -25 23 0 121 -50 141 -72 16 -18 15 -20 -9
-44 l-25 -26 -39 25 c-22 14 -49 28 -61 32 -19 5 -23 2 -23 -15 0 -11 8 -23
18 -27 9 -3 37 -20 62 -38 l45 -31 52 56 52 57 -27 25 c-44 40 -83 64 -144 86
l-58 22 0 -25z"/>
<path d="M444 387 c-3 -8 -4 -34 -2 -58 l3 -44 55 0 55 0 0 55 0 55 -53 3
c-38 2 -54 -1 -58 -11z m76 -47 c0 -13 -7 -20 -20 -20 -13 0 -20 7 -20 20 0
13 7 20 20 20 13 0 20 -7 20 -20z"/>
<path d="M360 295 l-24 -26 82 -82 82 -82 82 82 82 82 -24 26 c-30 32 -40 32
-40 -2 -1 -19 -17 -46 -50 -83 l-50 -55 -50 55 c-33 37 -49 64 -50 83 0 34
-10 34 -40 2z"/>
</g>
</svg>
