<?xml version="1.0" encoding="UTF-8"?>
<!DOCTYPE svg PUBLIC "-//W3C//DTD SVG 1.1//EN" "http://www.w3.org/Graphics/SVG/1.1/DTD/svg11.dtd">
<svg xmlns="http://www.w3.org/2000/svg" version="1.1" width="100px" height="100px" style="shape-rendering:geometricPrecision; text-rendering:geometricPrecision; image-rendering:optimizeQuality; fill-rule:evenodd; clip-rule:evenodd" xmlns:xlink="http://www.w3.org/1999/xlink">
<g><path style="opacity:0.785" fill="#000000" d="M 68.5,-0.5 C 70.5,-0.5 72.5,-0.5 74.5,-0.5C 82.5,8.16667 90.8333,16.5 99.5,24.5C 99.5,26.8333 99.5,29.1667 99.5,31.5C 91.3686,37.404 83.0353,43.0707 74.5,48.5C 75.3605,57.1429 73.8605,65.4762 70,73.5C 68.3794,77.491 65.5461,79.3243 61.5,79C 56.6667,74.1667 51.8333,69.3333 47,64.5C 32.6011,76.4102 18.1011,88.0768 3.5,99.5C 2.16667,99.5 0.833333,99.5 -0.5,99.5C -0.5,98.1667 -0.5,96.8333 -0.5,95.5C 10.9232,80.8989 22.5898,66.3989 34.5,52C 29.6667,47.1667 24.8333,42.3333 20,37.5C 19.6757,33.4539 21.509,30.6206 25.5,29C 33.1131,24.9189 41.1131,23.5855 49.5,25C 55.5005,16.126 61.8338,7.62603 68.5,-0.5 Z M 70.5,4.5 C 79.0917,11.4224 87.0917,19.0891 94.5,27.5C 86.306,34.187 77.806,40.5203 69,46.5C 70.9376,56.4129 68.9376,65.4129 63,73.5C 50.5,61 38,48.5 25.5,36C 33.546,29.8911 42.546,27.8911 52.5,30C 58.3307,21.3433 64.3307,12.8433 70.5,4.5 Z M 21.5,77.5 C 26.3742,69.7794 31.8742,62.4461 38,55.5C 39.8333,57.3333 41.6667,59.1667 43.5,61C 36.2861,66.7614 28.9527,72.2614 21.5,77.5 Z"/></g>
</svg>
